<mxfile host="app.diagrams.net" agent="Mozilla/5.0 (Windows NT 10.0; Win64; x64) AppleWebKit/537.36 (KHTML, like Gecko) Chrome/135.0.0.0 Safari/537.36" version="26.2.13" pages="2">
  <diagram name="PÃ¡gina-1" id="cAGpiZlsCdImZDNgVIcM">
    <mxGraphModel dx="1347" dy="597" grid="1" gridSize="10" guides="1" tooltips="1" connect="1" arrows="1" fold="1" page="1" pageScale="1" pageWidth="827" pageHeight="1169" math="0" shadow="0">
      <root>
        <mxCell id="0" />
        <mxCell id="1" parent="0" />
        <mxCell id="Kv8lKPhgLccmT6KM3eqo-4" style="edgeStyle=orthogonalEdgeStyle;rounded=0;orthogonalLoop=1;jettySize=auto;html=1;exitX=0.5;exitY=1;exitDx=0;exitDy=0;" edge="1" parent="1" source="Kv8lKPhgLccmT6KM3eqo-2">
          <mxGeometry relative="1" as="geometry">
            <mxPoint x="414" y="260" as="targetPoint" />
          </mxGeometry>
        </mxCell>
        <mxCell id="Kv8lKPhgLccmT6KM3eqo-2" value="INICIO" style="ellipse;whiteSpace=wrap;html=1;aspect=fixed;" vertex="1" parent="1">
          <mxGeometry x="374" y="120" width="80" height="80" as="geometry" />
        </mxCell>
        <mxCell id="Kv8lKPhgLccmT6KM3eqo-3" value="&lt;span style=&quot;background-color: rgb(255, 255, 255); padding: 0px 0px 0px 2px;&quot;&gt;&lt;span style=&quot;color: rgb(0, 0, 0); font-family: Consolas; white-space-collapse: preserve;&quot;&gt;&lt;font style=&quot;font-size: 24px;&quot;&gt;esPrimo()&lt;/font&gt;&lt;/span&gt;&lt;/span&gt;" style="text;html=1;align=center;verticalAlign=middle;resizable=0;points=[];autosize=1;strokeColor=none;fillColor=none;" vertex="1" parent="1">
          <mxGeometry x="344" y="40" width="140" height="40" as="geometry" />
        </mxCell>
        <mxCell id="Kv8lKPhgLccmT6KM3eqo-6" style="edgeStyle=orthogonalEdgeStyle;rounded=0;orthogonalLoop=1;jettySize=auto;html=1;exitX=0.491;exitY=0.844;exitDx=0;exitDy=0;exitPerimeter=0;" edge="1" parent="1" source="Kv8lKPhgLccmT6KM3eqo-5">
          <mxGeometry relative="1" as="geometry">
            <mxPoint x="414" y="400" as="targetPoint" />
            <Array as="points">
              <mxPoint x="414" y="308" />
            </Array>
          </mxGeometry>
        </mxCell>
        <mxCell id="Kv8lKPhgLccmT6KM3eqo-5" value="&lt;div&gt;boolean primo = true;&lt;/div&gt;&lt;div&gt;&lt;span style=&quot;white-space: normal;&quot;&gt;&lt;span style=&quot;white-space:pre&quot;&gt;&#x9;&#x9;&lt;/span&gt;int div = 2;&lt;/span&gt;&lt;/div&gt;" style="shape=document;whiteSpace=wrap;html=1;boundedLbl=1;" vertex="1" parent="1">
          <mxGeometry x="334" y="240" width="160" height="80" as="geometry" />
        </mxCell>
        <mxCell id="Kv8lKPhgLccmT6KM3eqo-9" style="edgeStyle=orthogonalEdgeStyle;rounded=0;orthogonalLoop=1;jettySize=auto;html=1;exitX=0;exitY=0.5;exitDx=0;exitDy=0;entryX=0.5;entryY=0;entryDx=0;entryDy=0;" edge="1" parent="1" source="Kv8lKPhgLccmT6KM3eqo-7">
          <mxGeometry relative="1" as="geometry">
            <mxPoint x="284" y="490" as="targetPoint" />
          </mxGeometry>
        </mxCell>
        <mxCell id="Kv8lKPhgLccmT6KM3eqo-12" style="edgeStyle=orthogonalEdgeStyle;rounded=0;orthogonalLoop=1;jettySize=auto;html=1;exitX=1;exitY=0.5;exitDx=0;exitDy=0;entryX=0.5;entryY=0;entryDx=0;entryDy=0;" edge="1" parent="1" source="Kv8lKPhgLccmT6KM3eqo-7">
          <mxGeometry relative="1" as="geometry">
            <mxPoint x="544" y="490" as="targetPoint" />
          </mxGeometry>
        </mxCell>
        <mxCell id="Kv8lKPhgLccmT6KM3eqo-7" value="primo == 1" style="rhombus;whiteSpace=wrap;html=1;" vertex="1" parent="1">
          <mxGeometry x="349" y="390" width="130" height="80" as="geometry" />
        </mxCell>
        <mxCell id="Kv8lKPhgLccmT6KM3eqo-10" value="TRUE" style="text;html=1;align=center;verticalAlign=middle;resizable=0;points=[];autosize=1;strokeColor=none;fillColor=none;" vertex="1" parent="1">
          <mxGeometry x="280" y="398" width="60" height="30" as="geometry" />
        </mxCell>
        <mxCell id="Kv8lKPhgLccmT6KM3eqo-14" value="FALSE" style="text;html=1;align=center;verticalAlign=middle;resizable=0;points=[];autosize=1;strokeColor=none;fillColor=none;" vertex="1" parent="1">
          <mxGeometry x="490" y="398" width="60" height="30" as="geometry" />
        </mxCell>
        <mxCell id="Kv8lKPhgLccmT6KM3eqo-17" style="edgeStyle=orthogonalEdgeStyle;rounded=0;orthogonalLoop=1;jettySize=auto;html=1;exitX=0;exitY=0.5;exitDx=0;exitDy=0;" edge="1" parent="1" source="Kv8lKPhgLccmT6KM3eqo-15">
          <mxGeometry relative="1" as="geometry">
            <mxPoint x="390" y="600" as="targetPoint" />
          </mxGeometry>
        </mxCell>
        <mxCell id="Kv8lKPhgLccmT6KM3eqo-19" style="edgeStyle=orthogonalEdgeStyle;rounded=0;orthogonalLoop=1;jettySize=auto;html=1;exitX=1;exitY=0.5;exitDx=0;exitDy=0;entryX=1;entryY=0.5;entryDx=0;entryDy=0;" edge="1" parent="1">
          <mxGeometry relative="1" as="geometry">
            <mxPoint x="660" y="630" as="targetPoint" />
            <mxPoint x="659.5" y="520" as="sourcePoint" />
            <Array as="points">
              <mxPoint x="700" y="520" />
              <mxPoint x="700" y="630" />
            </Array>
          </mxGeometry>
        </mxCell>
        <mxCell id="Kv8lKPhgLccmT6KM3eqo-15" value="div &amp;lt;= Math.sqrt(numero) &amp;amp;&amp;amp; primo" style="rhombus;whiteSpace=wrap;html=1;" vertex="1" parent="1">
          <mxGeometry x="420" y="477.5" width="250" height="85" as="geometry" />
        </mxCell>
        <mxCell id="Kv8lKPhgLccmT6KM3eqo-18" value="TRUE" style="text;html=1;align=center;verticalAlign=middle;resizable=0;points=[];autosize=1;strokeColor=none;fillColor=none;" vertex="1" parent="1">
          <mxGeometry x="380" y="490" width="60" height="30" as="geometry" />
        </mxCell>
        <mxCell id="Kv8lKPhgLccmT6KM3eqo-20" value="FALSE" style="text;html=1;align=center;verticalAlign=middle;resizable=0;points=[];autosize=1;strokeColor=none;fillColor=none;" vertex="1" parent="1">
          <mxGeometry x="660" y="490" width="60" height="30" as="geometry" />
        </mxCell>
        <mxCell id="Kv8lKPhgLccmT6KM3eqo-24" style="edgeStyle=orthogonalEdgeStyle;rounded=0;orthogonalLoop=1;jettySize=auto;html=1;exitX=1;exitY=0.5;exitDx=0;exitDy=0;entryX=0;entryY=0.5;entryDx=0;entryDy=0;" edge="1" parent="1" source="Kv8lKPhgLccmT6KM3eqo-21">
          <mxGeometry relative="1" as="geometry">
            <mxPoint x="540" y="630" as="targetPoint" />
          </mxGeometry>
        </mxCell>
        <mxCell id="Kv8lKPhgLccmT6KM3eqo-21" value="numero % div == 0" style="rhombus;whiteSpace=wrap;html=1;" vertex="1" parent="1">
          <mxGeometry x="320" y="600" width="140" height="60" as="geometry" />
        </mxCell>
        <mxCell id="Kv8lKPhgLccmT6KM3eqo-23" value="TRUE" style="text;html=1;align=center;verticalAlign=middle;resizable=0;points=[];autosize=1;strokeColor=none;fillColor=none;" vertex="1" parent="1">
          <mxGeometry x="260" y="600" width="60" height="30" as="geometry" />
        </mxCell>
        <mxCell id="Kv8lKPhgLccmT6KM3eqo-26" value="" style="edgeStyle=orthogonalEdgeStyle;rounded=0;orthogonalLoop=1;jettySize=auto;html=1;exitX=0;exitY=0.5;exitDx=0;exitDy=0;" edge="1" parent="1" source="Kv8lKPhgLccmT6KM3eqo-21">
          <mxGeometry relative="1" as="geometry">
            <mxPoint x="260" y="700" as="targetPoint" />
            <mxPoint x="320" y="630" as="sourcePoint" />
          </mxGeometry>
        </mxCell>
        <mxCell id="Kv8lKPhgLccmT6KM3eqo-27" value="FALSE" style="text;html=1;align=center;verticalAlign=middle;resizable=0;points=[];autosize=1;strokeColor=none;fillColor=none;" vertex="1" parent="1">
          <mxGeometry x="460" y="600" width="60" height="30" as="geometry" />
        </mxCell>
        <mxCell id="Kv8lKPhgLccmT6KM3eqo-30" style="edgeStyle=orthogonalEdgeStyle;rounded=0;orthogonalLoop=1;jettySize=auto;html=1;exitX=0.5;exitY=1;exitDx=0;exitDy=0;" edge="1" parent="1">
          <mxGeometry relative="1" as="geometry">
            <mxPoint x="600" y="710" as="targetPoint" />
            <mxPoint x="600" y="655" as="sourcePoint" />
          </mxGeometry>
        </mxCell>
        <mxCell id="Kv8lKPhgLccmT6KM3eqo-31" value="Return primo" style="whiteSpace=wrap;html=1;" vertex="1" parent="1">
          <mxGeometry x="540" y="690" width="120" height="60" as="geometry" />
        </mxCell>
        <mxCell id="Kv8lKPhgLccmT6KM3eqo-74" style="edgeStyle=orthogonalEdgeStyle;rounded=0;orthogonalLoop=1;jettySize=auto;html=1;exitX=1;exitY=0.5;exitDx=0;exitDy=0;entryX=0;entryY=0;entryDx=0;entryDy=0;" edge="1" parent="1" source="Kv8lKPhgLccmT6KM3eqo-32" target="Kv8lKPhgLccmT6KM3eqo-15">
          <mxGeometry relative="1" as="geometry">
            <Array as="points">
              <mxPoint x="370" y="508" />
              <mxPoint x="370" y="480" />
              <mxPoint x="483" y="480" />
            </Array>
          </mxGeometry>
        </mxCell>
        <mxCell id="Kv8lKPhgLccmT6KM3eqo-32" value="Primo = false;" style="shape=parallelogram;perimeter=parallelogramPerimeter;whiteSpace=wrap;html=1;fixedSize=1;" vertex="1" parent="1">
          <mxGeometry x="224" y="477.5" width="120" height="60" as="geometry" />
        </mxCell>
        <mxCell id="Kv8lKPhgLccmT6KM3eqo-34" value="div++" style="shape=parallelogram;perimeter=parallelogramPerimeter;whiteSpace=wrap;html=1;fixedSize=1;" vertex="1" parent="1">
          <mxGeometry x="540" y="600" width="120" height="60" as="geometry" />
        </mxCell>
        <mxCell id="Kv8lKPhgLccmT6KM3eqo-75" style="edgeStyle=orthogonalEdgeStyle;rounded=0;orthogonalLoop=1;jettySize=auto;html=1;exitX=1;exitY=0.5;exitDx=0;exitDy=0;entryX=0;entryY=1;entryDx=0;entryDy=0;" edge="1" parent="1" source="Kv8lKPhgLccmT6KM3eqo-35" target="Kv8lKPhgLccmT6KM3eqo-34">
          <mxGeometry relative="1" as="geometry">
            <Array as="points">
              <mxPoint x="340" y="720" />
              <mxPoint x="340" y="680" />
              <mxPoint x="540" y="680" />
            </Array>
          </mxGeometry>
        </mxCell>
        <mxCell id="Kv8lKPhgLccmT6KM3eqo-35" value="Primo = false;" style="shape=parallelogram;perimeter=parallelogramPerimeter;whiteSpace=wrap;html=1;fixedSize=1;" vertex="1" parent="1">
          <mxGeometry x="200" y="690" width="120" height="60" as="geometry" />
        </mxCell>
        <mxCell id="Kv8lKPhgLccmT6KM3eqo-36" value="&lt;font style=&quot;font-size: 36px;&quot;&gt;&lt;span style=&quot;&quot; class=&quot;base&quot;&gt;&lt;span style=&quot;&quot; class=&quot;mord mathnormal&quot;&gt;V&lt;/span&gt;&lt;span style=&quot;&quot; class=&quot;mopen&quot;&gt;(&lt;/span&gt;&lt;span style=&quot;&quot; class=&quot;mord mathnormal&quot;&gt;G&lt;/span&gt;&lt;span style=&quot;&quot; class=&quot;mclose&quot;&gt;)&lt;/span&gt;&lt;span style=&quot;&quot; class=&quot;mspace&quot;&gt;&lt;/span&gt;&lt;span style=&quot;&quot; class=&quot;mrel&quot;&gt;=11-9&lt;/span&gt;&lt;/span&gt;&lt;span style=&quot;&quot; class=&quot;base&quot;&gt;&lt;span class=&quot;mbin&quot;&gt;&amp;nbsp;&lt;/span&gt;&lt;/span&gt;&lt;span style=&quot;&quot; class=&quot;base&quot;&gt;&lt;span class=&quot;mbin&quot;&gt;+&lt;/span&gt;&lt;span class=&quot;mspace&quot;&gt;&lt;/span&gt;&lt;/span&gt;&lt;span style=&quot;&quot; class=&quot;base&quot;&gt;&lt;span style=&quot;&quot; class=&quot;strut&quot;&gt;&lt;/span&gt;&lt;span style=&quot;&quot; class=&quot;mord&quot;&gt;2&amp;nbsp;&lt;/span&gt;&lt;span style=&quot;&quot; class=&quot;mrel&quot;&gt;= 4&lt;/span&gt;&lt;/span&gt;&lt;/font&gt;" style="text;whiteSpace=wrap;html=1;" vertex="1" parent="1">
          <mxGeometry x="31" y="2410" width="340" height="50" as="geometry" />
        </mxCell>
        <mxCell id="Kv8lKPhgLccmT6KM3eqo-37" value="&lt;font style=&quot;font-size: 36px;&quot;&gt;1-2-3-4-5-6&lt;/font&gt;" style="text;html=1;align=center;verticalAlign=middle;resizable=0;points=[];autosize=1;strokeColor=none;fillColor=none;" vertex="1" parent="1">
          <mxGeometry x="21" y="2460" width="200" height="60" as="geometry" />
        </mxCell>
        <mxCell id="Kv8lKPhgLccmT6KM3eqo-38" style="edgeStyle=orthogonalEdgeStyle;rounded=0;orthogonalLoop=1;jettySize=auto;html=1;exitX=0.5;exitY=1;exitDx=0;exitDy=0;" edge="1" parent="1" source="Kv8lKPhgLccmT6KM3eqo-39">
          <mxGeometry relative="1" as="geometry">
            <mxPoint x="424" y="1360" as="targetPoint" />
          </mxGeometry>
        </mxCell>
        <mxCell id="Kv8lKPhgLccmT6KM3eqo-39" value="INICIO" style="ellipse;whiteSpace=wrap;html=1;aspect=fixed;" vertex="1" parent="1">
          <mxGeometry x="384" y="1220" width="80" height="80" as="geometry" />
        </mxCell>
        <mxCell id="Kv8lKPhgLccmT6KM3eqo-40" style="edgeStyle=orthogonalEdgeStyle;rounded=0;orthogonalLoop=1;jettySize=auto;html=1;exitX=0.491;exitY=0.844;exitDx=0;exitDy=0;exitPerimeter=0;" edge="1" parent="1">
          <mxGeometry relative="1" as="geometry">
            <mxPoint x="424" y="1500" as="targetPoint" />
            <Array as="points">
              <mxPoint x="424" y="1408" />
            </Array>
            <mxPoint x="422.55999999999995" y="1407.52" as="sourcePoint" />
          </mxGeometry>
        </mxCell>
        <mxCell id="Kv8lKPhgLccmT6KM3eqo-42" style="edgeStyle=orthogonalEdgeStyle;rounded=0;orthogonalLoop=1;jettySize=auto;html=1;exitX=0;exitY=0.5;exitDx=0;exitDy=0;entryX=0.5;entryY=0;entryDx=0;entryDy=0;" edge="1" parent="1" source="Kv8lKPhgLccmT6KM3eqo-64">
          <mxGeometry relative="1" as="geometry">
            <mxPoint x="294" y="1590" as="targetPoint" />
            <mxPoint x="359" y="1530" as="sourcePoint" />
            <Array as="points">
              <mxPoint x="295" y="1520" />
            </Array>
          </mxGeometry>
        </mxCell>
        <mxCell id="Kv8lKPhgLccmT6KM3eqo-43" style="edgeStyle=orthogonalEdgeStyle;rounded=0;orthogonalLoop=1;jettySize=auto;html=1;exitX=1;exitY=0.5;exitDx=0;exitDy=0;entryX=0.5;entryY=0;entryDx=0;entryDy=0;" edge="1" parent="1" source="Kv8lKPhgLccmT6KM3eqo-64">
          <mxGeometry relative="1" as="geometry">
            <mxPoint x="554" y="1590" as="targetPoint" />
            <mxPoint x="489" y="1530" as="sourcePoint" />
          </mxGeometry>
        </mxCell>
        <mxCell id="Kv8lKPhgLccmT6KM3eqo-45" value="TRUE" style="text;html=1;align=center;verticalAlign=middle;resizable=0;points=[];autosize=1;strokeColor=none;fillColor=none;" vertex="1" parent="1">
          <mxGeometry x="304" y="1490" width="60" height="30" as="geometry" />
        </mxCell>
        <mxCell id="Kv8lKPhgLccmT6KM3eqo-46" value="FALSE" style="text;html=1;align=center;verticalAlign=middle;resizable=0;points=[];autosize=1;strokeColor=none;fillColor=none;" vertex="1" parent="1">
          <mxGeometry x="480" y="1490" width="60" height="30" as="geometry" />
        </mxCell>
        <mxCell id="Kv8lKPhgLccmT6KM3eqo-47" style="edgeStyle=orthogonalEdgeStyle;rounded=0;orthogonalLoop=1;jettySize=auto;html=1;exitX=0;exitY=0.5;exitDx=0;exitDy=0;" edge="1" parent="1" source="Kv8lKPhgLccmT6KM3eqo-66">
          <mxGeometry relative="1" as="geometry">
            <mxPoint x="400" y="1700" as="targetPoint" />
            <mxPoint x="430" y="1620" as="sourcePoint" />
          </mxGeometry>
        </mxCell>
        <mxCell id="Kv8lKPhgLccmT6KM3eqo-48" style="edgeStyle=orthogonalEdgeStyle;rounded=0;orthogonalLoop=1;jettySize=auto;html=1;exitX=1;exitY=0.5;exitDx=0;exitDy=0;entryX=1;entryY=0.5;entryDx=0;entryDy=0;" edge="1" parent="1" source="Kv8lKPhgLccmT6KM3eqo-66" target="Kv8lKPhgLccmT6KM3eqo-67">
          <mxGeometry relative="1" as="geometry">
            <mxPoint x="670" y="1730" as="targetPoint" />
            <mxPoint x="669.5" y="1620" as="sourcePoint" />
            <Array as="points">
              <mxPoint x="710" y="1610" />
              <mxPoint x="710" y="1730" />
            </Array>
          </mxGeometry>
        </mxCell>
        <mxCell id="Kv8lKPhgLccmT6KM3eqo-50" value="TRUE" style="text;html=1;align=center;verticalAlign=middle;resizable=0;points=[];autosize=1;strokeColor=none;fillColor=none;" vertex="1" parent="1">
          <mxGeometry x="410" y="1585" width="60" height="30" as="geometry" />
        </mxCell>
        <mxCell id="Kv8lKPhgLccmT6KM3eqo-51" value="FALSE" style="text;html=1;align=center;verticalAlign=middle;resizable=0;points=[];autosize=1;strokeColor=none;fillColor=none;" vertex="1" parent="1">
          <mxGeometry x="630" y="1585" width="60" height="30" as="geometry" />
        </mxCell>
        <mxCell id="Kv8lKPhgLccmT6KM3eqo-52" style="edgeStyle=orthogonalEdgeStyle;rounded=0;orthogonalLoop=1;jettySize=auto;html=1;exitX=1;exitY=0.5;exitDx=0;exitDy=0;entryX=0;entryY=0.5;entryDx=0;entryDy=0;" edge="1" parent="1" source="Kv8lKPhgLccmT6KM3eqo-69" target="Kv8lKPhgLccmT6KM3eqo-67">
          <mxGeometry relative="1" as="geometry">
            <mxPoint x="550" y="1730" as="targetPoint" />
            <mxPoint x="470" y="1730" as="sourcePoint" />
          </mxGeometry>
        </mxCell>
        <mxCell id="Kv8lKPhgLccmT6KM3eqo-54" value="TRUE" style="text;html=1;align=center;verticalAlign=middle;resizable=0;points=[];autosize=1;strokeColor=none;fillColor=none;" vertex="1" parent="1">
          <mxGeometry x="280" y="1700" width="60" height="30" as="geometry" />
        </mxCell>
        <mxCell id="Kv8lKPhgLccmT6KM3eqo-55" value="" style="edgeStyle=orthogonalEdgeStyle;rounded=0;orthogonalLoop=1;jettySize=auto;html=1;exitX=0;exitY=0.5;exitDx=0;exitDy=0;" edge="1" parent="1" source="Kv8lKPhgLccmT6KM3eqo-69">
          <mxGeometry relative="1" as="geometry">
            <mxPoint x="270" y="1800" as="targetPoint" />
            <mxPoint x="330" y="1730" as="sourcePoint" />
          </mxGeometry>
        </mxCell>
        <mxCell id="Kv8lKPhgLccmT6KM3eqo-56" value="FALSE" style="text;html=1;align=center;verticalAlign=middle;resizable=0;points=[];autosize=1;strokeColor=none;fillColor=none;" vertex="1" parent="1">
          <mxGeometry x="470" y="1700" width="60" height="30" as="geometry" />
        </mxCell>
        <mxCell id="Kv8lKPhgLccmT6KM3eqo-57" style="edgeStyle=orthogonalEdgeStyle;rounded=0;orthogonalLoop=1;jettySize=auto;html=1;exitX=0.5;exitY=1;exitDx=0;exitDy=0;" edge="1" parent="1">
          <mxGeometry relative="1" as="geometry">
            <mxPoint x="610" y="1810" as="targetPoint" />
            <mxPoint x="610" y="1755" as="sourcePoint" />
          </mxGeometry>
        </mxCell>
        <mxCell id="Kv8lKPhgLccmT6KM3eqo-62" value="2" style="ellipse;whiteSpace=wrap;html=1;aspect=fixed;" vertex="1" parent="1">
          <mxGeometry x="384" y="1340" width="80" height="80" as="geometry" />
        </mxCell>
        <mxCell id="Kv8lKPhgLccmT6KM3eqo-64" value="3" style="ellipse;whiteSpace=wrap;html=1;aspect=fixed;" vertex="1" parent="1">
          <mxGeometry x="380" y="1480" width="80" height="80" as="geometry" />
        </mxCell>
        <mxCell id="Kv8lKPhgLccmT6KM3eqo-72" style="edgeStyle=orthogonalEdgeStyle;rounded=0;orthogonalLoop=1;jettySize=auto;html=1;exitX=1;exitY=0.5;exitDx=0;exitDy=0;entryX=0;entryY=0;entryDx=0;entryDy=0;" edge="1" parent="1" source="Kv8lKPhgLccmT6KM3eqo-65" target="Kv8lKPhgLccmT6KM3eqo-66">
          <mxGeometry relative="1" as="geometry">
            <Array as="points">
              <mxPoint x="360" y="1600" />
              <mxPoint x="360" y="1570" />
              <mxPoint x="490" y="1570" />
              <mxPoint x="490" y="1582" />
            </Array>
          </mxGeometry>
        </mxCell>
        <mxCell id="Kv8lKPhgLccmT6KM3eqo-65" value="7" style="ellipse;whiteSpace=wrap;html=1;aspect=fixed;" vertex="1" parent="1">
          <mxGeometry x="254" y="1560" width="80" height="80" as="geometry" />
        </mxCell>
        <mxCell id="Kv8lKPhgLccmT6KM3eqo-66" value="4" style="ellipse;whiteSpace=wrap;html=1;aspect=fixed;" vertex="1" parent="1">
          <mxGeometry x="515" y="1570" width="80" height="80" as="geometry" />
        </mxCell>
        <mxCell id="Kv8lKPhgLccmT6KM3eqo-67" value="5" style="ellipse;whiteSpace=wrap;html=1;aspect=fixed;" vertex="1" parent="1">
          <mxGeometry x="570" y="1690" width="80" height="80" as="geometry" />
        </mxCell>
        <mxCell id="Kv8lKPhgLccmT6KM3eqo-68" value="6" style="ellipse;whiteSpace=wrap;html=1;aspect=fixed;" vertex="1" parent="1">
          <mxGeometry x="570" y="1790" width="80" height="80" as="geometry" />
        </mxCell>
        <mxCell id="Kv8lKPhgLccmT6KM3eqo-69" value="8" style="ellipse;whiteSpace=wrap;html=1;aspect=fixed;" vertex="1" parent="1">
          <mxGeometry x="360" y="1690" width="80" height="80" as="geometry" />
        </mxCell>
        <mxCell id="Kv8lKPhgLccmT6KM3eqo-73" style="edgeStyle=orthogonalEdgeStyle;rounded=0;orthogonalLoop=1;jettySize=auto;html=1;exitX=1;exitY=0.5;exitDx=0;exitDy=0;entryX=0;entryY=1;entryDx=0;entryDy=0;" edge="1" parent="1" source="Kv8lKPhgLccmT6KM3eqo-70" target="Kv8lKPhgLccmT6KM3eqo-67">
          <mxGeometry relative="1" as="geometry">
            <Array as="points">
              <mxPoint x="500" y="1820" />
              <mxPoint x="500" y="1758" />
            </Array>
          </mxGeometry>
        </mxCell>
        <mxCell id="Kv8lKPhgLccmT6KM3eqo-70" value="9" style="ellipse;whiteSpace=wrap;html=1;aspect=fixed;" vertex="1" parent="1">
          <mxGeometry x="230" y="1780" width="80" height="80" as="geometry" />
        </mxCell>
        <mxCell id="Kv8lKPhgLccmT6KM3eqo-71" value="&lt;font style=&quot;font-size: 36px;&quot;&gt;1-2-3-7-4-8-9-5-6&lt;/font&gt;" style="text;html=1;align=center;verticalAlign=middle;resizable=0;points=[];autosize=1;strokeColor=none;fillColor=none;" vertex="1" parent="1">
          <mxGeometry x="295" y="2460" width="300" height="60" as="geometry" />
        </mxCell>
        <mxCell id="Kv8lKPhgLccmT6KM3eqo-76" value="&lt;font style=&quot;font-size: 36px;&quot;&gt;1-2-3-7-4-5-6&lt;/font&gt;" style="text;html=1;align=center;verticalAlign=middle;resizable=0;points=[];autosize=1;strokeColor=none;fillColor=none;" vertex="1" parent="1">
          <mxGeometry x="21" y="2510" width="240" height="60" as="geometry" />
        </mxCell>
        <mxCell id="Kv8lKPhgLccmT6KM3eqo-77" value="&lt;font style=&quot;font-size: 36px;&quot;&gt;1-2-3-4-8-9-5-6&lt;/font&gt;" style="text;html=1;align=center;verticalAlign=middle;resizable=0;points=[];autosize=1;strokeColor=none;fillColor=none;" vertex="1" parent="1">
          <mxGeometry x="293" y="2510" width="270" height="60" as="geometry" />
        </mxCell>
        <mxCell id="Xy7B2MdWpMzWg7MQbLKf-1" value="&lt;font style=&quot;font-size: 36px;&quot;&gt;1-2-3-4-5-6&lt;/font&gt;" style="text;html=1;align=center;verticalAlign=middle;resizable=0;points=[];autosize=1;strokeColor=none;fillColor=none;" vertex="1" parent="1">
          <mxGeometry x="41" y="2620" width="200" height="60" as="geometry" />
        </mxCell>
        <mxCell id="Xy7B2MdWpMzWg7MQbLKf-3" value="&lt;font style=&quot;font-size: 24px;&quot;&gt;Prueba: numero = 1&amp;nbsp; -&amp;gt;&amp;nbsp;&lt;/font&gt;&lt;div&gt;&lt;font style=&quot;font-size: 24px;&quot;&gt;Respuesta esperada: return primo = true&lt;/font&gt;&lt;/div&gt;" style="text;html=1;align=center;verticalAlign=middle;resizable=0;points=[];autosize=1;strokeColor=none;fillColor=none;" vertex="1" parent="1">
          <mxGeometry x="19" y="2680" width="460" height="70" as="geometry" />
        </mxCell>
      </root>
    </mxGraphModel>
  </diagram>
  <diagram id="SWu3cxyDUQiygOaAhQI1" name="PÃ¡gina-2">
    <mxGraphModel grid="1" page="1" gridSize="10" guides="1" tooltips="1" connect="1" arrows="1" fold="1" pageScale="1" pageWidth="827" pageHeight="1169" math="0" shadow="0">
      <root>
        <mxCell id="0" />
        <mxCell id="1" parent="0" />
      </root>
    </mxGraphModel>
  </diagram>
</mxfile>
